HIERARCHY
ROOT Hips
{
	OFFSET 0.000000 0.000000 0.000000
	CHANNELS 6 Xposition Yposition Zposition Zrotation Yrotation Xrotation 
	JOINT LHipJoint
	{
		OFFSET 0.000000 0.000000 0.000000
		CHANNELS 3 Zrotation Yrotation Xrotation
		JOINT LeftUpLeg
		{
			OFFSET 1.363060 -1.794630 0.839290
			CHANNELS 3 Zrotation Yrotation Xrotation
			JOINT LeftLeg
			{
				OFFSET 2.448110 -6.726130 0.000000
				CHANNELS 3 Zrotation Yrotation Xrotation
				JOINT LeftFoot
				{
					OFFSET 2.562200 -7.039590 0.000000
					CHANNELS 3 Zrotation Yrotation Xrotation
					JOINT LeftToeBase
					{
						OFFSET 0.157640 -0.433110 2.322550
						CHANNELS 3 Zrotation Yrotation Xrotation
						End Site
						{
							OFFSET 0.000000 0.000000 0.000000
						}
					}
				}
			}
		}
	}
	JOINT RHipJoint
	{
		OFFSET 0.000000 0.000000 0.000000
		CHANNELS 3 Zrotation Yrotation Xrotation
		JOINT RightUpLeg
		{
			OFFSET -1.305520 -1.794630 0.839290
			CHANNELS 3 Zrotation Yrotation Xrotation
			JOINT RightLeg
			{
				OFFSET -2.542530 -6.985550 0.000000
				CHANNELS 3 Zrotation Yrotation Xrotation
				JOINT RightFoot
				{
					OFFSET -2.568260 -7.056230 0.000000
					CHANNELS 3 Zrotation Yrotation Xrotation
					JOINT RightToeBase
					{
						OFFSET -0.164730 -0.452590 2.363150
						CHANNELS 3 Zrotation Yrotation Xrotation
						End Site
						{
							OFFSET 0.000000 0.000000 0.000000
						}
					}
				}
			}
		}
	}
	JOINT LowerBack
	{
		OFFSET 0.000000 0.000000 0.000000
		CHANNELS 3 Zrotation Yrotation Xrotation
		JOINT Spine
		{
			OFFSET 0.028270 2.035590 -0.193380
			CHANNELS 3 Zrotation Yrotation Xrotation
			JOINT Spine1
			{
				OFFSET 0.056720 2.048850 -0.042750
				CHANNELS 3 Zrotation Yrotation Xrotation
				JOINT Neck
				{
					OFFSET 0.000000 0.000000 0.000000
					CHANNELS 3 Zrotation Yrotation Xrotation
					JOINT Neck1
					{
						OFFSET -0.054170 1.746240 0.172020
						CHANNELS 3 Zrotation Yrotation Xrotation
						JOINT Head
						{
							OFFSET 0.104070 1.761360 -0.123970
							CHANNELS 3 Zrotation Yrotation Xrotation
							End Site
							{
								OFFSET 0.000000 0.000000 0.000000
							}
						}
					}
				}
				JOINT LeftShoulder
				{
					OFFSET 0.000000 0.000000 0.000000
					CHANNELS 3 Zrotation Yrotation Xrotation
					JOINT LeftArm
					{
						OFFSET 3.362410 1.200890 -0.311210
						CHANNELS 3 Zrotation Yrotation Xrotation
						JOINT LeftForeArm
						{
							OFFSET 4.983000 -0.000000 -0.000000
							CHANNELS 3 Zrotation Yrotation Xrotation
							JOINT LeftHand
							{
								OFFSET 3.483560 -0.000000 -0.000000
								CHANNELS 3 Zrotation Yrotation Xrotation
								JOINT LeftFingerBase
								{
									OFFSET 0.000000 0.000000 0.000000
									CHANNELS 3 Zrotation Yrotation Xrotation
									JOINT LeftHandIndex1
									{
										OFFSET 0.715260 -0.000000 -0.000000
										CHANNELS 3 Zrotation Yrotation Xrotation
										End Site
										{
											OFFSET 0.000000 0.000000 0.000000
										}
									}
								}
								JOINT LThumb
								{
									OFFSET 0.000000 0.000000 0.000000
									CHANNELS 3 Zrotation Yrotation Xrotation
									End Site
									{
										OFFSET 0.000000 0.000000 0.000000
									}
								}
							}
						}
					}
				}
				JOINT RightShoulder
				{
					OFFSET 0.000000 0.000000 0.000000
					CHANNELS 3 Zrotation Yrotation Xrotation
					JOINT RightArm
					{
						OFFSET -3.136600 1.374050 -0.404650
						CHANNELS 3 Zrotation Yrotation Xrotation
						JOINT RightForeArm
						{
							OFFSET -5.241900 -0.000000 -0.000000
							CHANNELS 3 Zrotation Yrotation Xrotation
							JOINT RightHand
							{
								OFFSET -3.444170 -0.000000 -0.000000
								CHANNELS 3 Zrotation Yrotation Xrotation
								JOINT RightFingerBase
								{
									OFFSET 0.000000 0.000000 0.000000
									CHANNELS 3 Zrotation Yrotation Xrotation
									JOINT RightHandIndex1
									{
										OFFSET -0.622530 -0.000000 -0.000000
										CHANNELS 3 Zrotation Yrotation Xrotation
										End Site
										{
											OFFSET 0.000000 0.000000 0.000000
										}
									}
								}
								JOINT RThumb
								{
									OFFSET 0.000000 0.000000 0.000000
									CHANNELS 3 Zrotation Yrotation Xrotation
									End Site
									{
										OFFSET 0.000000 0.000000 0.000000
									}
								}
							}
						}
					}
				}
			}
		}
	}
}
MOTION
Frames: 5
Frame Time: 0.008333
10.683687 16.604912 1.024764 -174.827306 -84.796285 -172.481218 -11.326228 5.286530 1.240567 -5.507155 4.929944 2.658742 -1.244375 1.672862 26.125798 0.048360 -3.554234 5.312082 -0.648100 0.000000 -84.596600 8.314467 -0.799083 6.048575 7.655696 11.712043 -40.047997 2.428580 -0.416167 13.586292 0.231171 -0.572718 10.754773 -1.054100 0.000001 -67.058900 4.081304 -5.844512 -7.787042 0.695053 -6.478520 -4.256418 -6.246210 -6.591483 0.363486 10.849254 -15.102259 -9.189325 -3.986169 -0.295535 -0.331134 0.000000 0.000000 0.000000 0.099606 3.186185 -0.851087 -72.296808 -12.945104 3.385968 -1.007340 -78.292839 -0.135152 21.473710 -5.199677 -1.084133 -0.282845 0.462283 -0.000000 0.000000 0.000000 0.000000 0.000000 0.000000 0.000000 17.933139 -14.484278 0.952741 56.905865 -6.502096 -37.774461 1.170692 54.891850 -0.010095 -12.107174 12.003572 -1.312528 0.137756 -0.194335 -0.000000 0.000000 0.000000 0.000000 0.000000 0.000000 0.000000 
10.507775 16.630770 0.996393 -168.788816 -84.700993 -178.513560 -11.401604 5.311560 1.142328 -4.630033 5.728559 1.253537 -1.013501 1.846520 28.860887 0.125506 -3.780513 7.279413 -0.864800 -0.000000 -83.431400 8.307977 -0.892638 6.109337 8.339178 12.042619 -39.551180 2.441185 -0.472810 14.087921 0.179106 -0.823912 10.495676 -1.131000 0.000000 -65.795601 4.573596 -5.799558 -7.777774 0.792266 -6.493844 -4.267630 -6.269952 -6.609906 0.338417 10.908262 -14.914785 -9.204774 -3.984949 -0.295356 -0.335476 0.000000 0.000000 0.000000 -0.064039 3.319416 -0.788204 -72.903441 -12.191060 3.141868 -1.029258 -77.601430 -0.131477 21.351769 -5.169050 -1.069795 -0.274822 0.451384 -0.000000 0.000000 0.000000 0.000000 0.000000 0.000000 0.000000 17.961753 -14.250412 0.920425 56.866798 -5.882816 -37.531126 1.160620 54.884579 -0.011052 -12.149352 12.000588 -1.317037 0.136973 -0.197413 -0.000000 0.000000 0.000000 0.000000 0.000000 0.000000 0.000000 
10.335672 16.656586 0.966376 -163.780597 -84.637803 176.526039 -11.485091 5.296603 1.058980 -3.868915 6.435414 -0.312165 -0.781885 1.995064 31.733466 0.230898 -3.739240 9.029692 -1.027700 0.000000 -81.102300 8.287320 -0.990591 6.168215 8.971099 12.274231 -39.075517 2.467282 -0.511951 14.513588 0.134386 -1.012637 10.059983 -1.181500 -0.000000 -64.421400 4.963221 -5.773043 -7.790534 0.866550 -6.516998 -4.279180 -6.301613 -6.635326 0.324173 10.995117 -14.744493 -9.231541 -3.985671 -0.295248 -0.342840 0.000000 0.000000 0.000000 -0.183830 3.453087 -0.722928 -73.422660 -11.466298 2.877377 -1.048857 -76.902377 -0.127969 21.240866 -5.096489 -1.047959 -0.266898 0.440088 -0.000000 0.000000 0.000000 0.000000 0.000000 0.000000 0.000000 18.032711 -14.036035 0.882499 56.875695 -5.231504 -37.252449 1.149592 54.912121 -0.011979 -12.197507 11.996430 -1.322043 0.136218 -0.200268 -0.000000 0.000000 0.000000 0.000000 0.000000 0.000000 0.000000 
10.167419 16.682223 0.935249 -159.383547 -84.610499 172.223616 -11.565383 5.246053 0.990818 -3.221823 7.038295 -2.029895 -0.556762 2.122760 34.715547 0.358664 -3.361616 10.465788 -1.084700 0.000000 -77.736500 8.261836 -1.086334 6.228318 9.557951 12.423045 -38.628397 2.507467 -0.533510 14.856032 0.098662 -1.135069 9.484000 -1.205200 -0.000000 -62.989601 5.278222 -5.755271 -7.826805 0.923609 -6.541913 -4.291810 -6.341474 -6.661915 0.319448 11.103435 -14.590621 -9.269516 -3.988113 -0.295192 -0.353221 0.000000 0.000000 0.000000 -0.270448 3.588412 -0.655299 -73.847534 -10.778703 2.602931 -1.066319 -76.210820 -0.124676 21.147022 -4.984832 -1.019720 -0.259244 0.428570 -0.000000 0.000000 0.000000 0.000000 0.000000 0.000000 0.000000 18.136415 -13.836648 0.841672 56.932359 -4.557423 -36.940560 1.137934 54.974095 -0.012879 -12.251198 11.994499 -1.327847 0.135528 -0.202997 -0.000000 0.000000 0.000000 0.000000 0.000000 0.000000 0.000000 
10.003229 16.707645 0.903448 -155.340436 -84.625705 168.319342 -11.633699 5.162082 0.937264 -2.691717 7.524929 -3.880031 -0.342232 2.233971 37.767979 0.502956 -2.602521 11.515906 -0.995000 -0.000001 -73.541499 8.238332 -1.177355 6.289632 10.100048 12.493552 -38.217559 2.560349 -0.539452 15.116690 0.073268 -1.184811 8.805055 -1.200900 0.000000 -61.560700 5.534048 -5.742006 -7.884498 0.966755 -6.566167 -4.305686 -6.388786 -6.687400 0.322334 11.226548 -14.451626 -9.318034 -3.991987 -0.295164 -0.366512 0.000000 0.000000 0.000000 -0.332624 3.723684 -0.585227 -74.171132 -10.132755 2.327471 -1.081569 -75.542073 -0.121637 21.075661 -4.840282 -0.986576 -0.252024 0.417038 0.000000 0.000000 0.000000 0.000000 0.000000 0.000000 0.000000 18.263116 -13.649047 0.800198 57.038660 -3.868957 -36.598085 1.125792 55.067448 -0.013751 -12.308236 12.000114 -1.334848 0.134894 -0.205686 -0.000000 0.000000 0.000000 0.000000 0.000000 0.000000 0.000000 
